<svg width="173" height="200" viewBox="0 0 173 200" fill="none" xmlns="http://www.w3.org/2000/svg">
<g clip-path="url(#clip0_2067_5375)">
<path d="M172.096 49.7413V149.162L85.9941 198.874V99.4496L172.096 49.7413Z" fill="url(#paint0_linear_2067_5375)"/>
<path d="M85.9931 198.874V99.4496L0 49.7413V149.162L85.9931 198.874Z" fill="url(#paint1_linear_2067_5375)"/>
<path d="M172.1 50.0247L85.9957 99.7382L0 50.0247L85.9957 0.419678L172.1 50.0247Z" fill="url(#paint2_linear_2067_5375)"/>
<path d="M172.095 149.443V50.0232L85.9931 0.419678L0 50.0232V149.443L85.9931 199.156L172.095 149.443Z" stroke="white" stroke-miterlimit="10"/>
</g>
<g clip-path="url(#clip1_2067_5375)">
<path d="M142.112 76.1531C140.05 70.2276 136.834 64.8218 132.672 60.282C128.509 55.7423 123.491 52.169 117.939 49.7917C110.622 46.4642 102.813 44.4979 94.8576 43.9802C91.815 43.7592 88.7724 43.6266 85.7299 43.4277C75.1221 43.2747 64.5876 45.3011 54.7164 49.3938C47.5791 52.3705 41.3008 57.253 36.4993 63.5607C31.6979 69.8683 28.5389 77.3839 27.3331 85.3676C25.3755 95.6449 25.5761 106.249 27.9207 116.436C31.7187 132.92 41.308 144.057 56.2062 150.222C66.3618 154.165 77.1617 155.938 87.9751 155.437C97.9798 155.52 107.903 153.539 117.184 149.603C124.328 146.646 130.614 141.776 135.421 135.474C140.228 129.172 143.388 121.657 144.588 113.674C147.103 101.169 146.246 88.1717 142.112 76.1531ZM126.081 126.578C121.884 138.886 114.036 147.504 101.992 151.327C92.2184 154.424 81.8249 154.638 71.9438 151.945C66.74 150.7 61.8716 148.23 57.7034 144.72C53.5352 141.211 50.1754 136.754 47.8759 131.683C44.7117 124.751 42.8112 117.256 42.2732 109.586C40.9941 97.9761 41.9142 86.2148 44.9802 74.9822C48.0647 64.4419 53.6882 55.8905 63.1517 50.6756C70.1691 47.0051 77.9163 45.1491 85.7509 45.2617C88.5836 45.5048 91.4164 45.5933 94.1442 45.9911C109.525 48.2007 120.268 56.6637 125.85 72.0652C128.168 78.8259 129.491 85.9199 129.774 93.1015C130.746 104.406 129.503 115.8 126.123 126.578H126.081Z" fill="white"/>
<path d="M102.726 66.0328C97.2807 64.3231 91.6214 63.4888 85.9395 63.558C78.5758 63.3471 71.2593 64.8563 64.5155 67.9774C60.5956 69.8357 57.1371 72.6238 54.4106 76.1237C51.6841 79.6236 49.7635 83.7403 48.799 88.1518C46.8085 96.141 46.961 104.555 49.2395 112.458C50.5012 117.155 52.8686 121.441 56.1223 124.917C59.3759 128.394 63.4105 130.949 67.8518 132.346C80.1087 136.873 93.4943 136.67 105.622 131.771C117.331 127.02 123.122 117.408 124.36 104.481C125.045 98.309 124.495 92.0536 122.744 86.1188C119.45 75.6891 112.462 69.3253 102.726 66.0328ZM112.526 114.381C110.238 122.733 105.706 129.053 97.8371 132.058C92.4634 134.087 86.6971 134.687 81.0504 133.804C70.5587 132.39 63.3404 126.556 60.067 115.861C56.9681 105.635 56.8075 94.6731 59.6053 84.3512C60.4521 80.3451 62.2407 76.627 64.8071 73.5383C67.3735 70.4496 70.6355 68.0893 74.2937 66.6737C80.0139 64.5521 86.1569 64.0192 92.1296 65.1268C96.3409 65.6127 100.347 67.2969 103.718 69.9985C107.09 72.7002 109.699 76.3174 111.266 80.4622C113.599 86.7401 114.671 93.4587 114.414 100.195C114.42 104.993 113.785 109.769 112.526 114.381Z" fill="white"/>
<path d="M109.295 103.73C109.856 99.8142 109.635 95.8176 108.644 91.9968C107.98 89.1858 106.633 86.6053 104.735 84.5092C102.836 82.4131 100.452 80.8736 97.8171 80.0423C90.1954 77.2365 81.8953 77.2365 74.2736 80.0423C67.496 82.473 63.782 87.5111 62.6279 95.5101C62.1357 98.9821 62.271 102.521 63.0266 105.94C64.8311 113.829 69.5944 118.336 78.0297 120.126C79.8273 120.473 81.6415 120.717 83.4644 120.855L84.7863 120.988C89.3174 121.119 93.8349 120.409 98.1317 118.889C101.18 117.762 103.856 115.732 105.836 113.043C107.816 110.354 109.017 107.12 109.295 103.73Z" fill="white"/>
</g>
<defs>
<linearGradient id="paint0_linear_2067_5375" x1="129.045" y1="49.7413" x2="129.045" y2="198.874" gradientUnits="userSpaceOnUse">
<stop stop-color="white" stop-opacity="0"/>
<stop offset="1" stop-color="white" stop-opacity="0.3"/>
</linearGradient>
<linearGradient id="paint1_linear_2067_5375" x1="43.571" y1="51.7098" x2="42.3922" y2="200.909" gradientUnits="userSpaceOnUse">
<stop stop-color="white" stop-opacity="0.3"/>
<stop offset="1" stop-color="white" stop-opacity="0"/>
</linearGradient>
<linearGradient id="paint2_linear_2067_5375" x1="86.0481" y1="97.8783" x2="86.0481" y2="5.22862" gradientUnits="userSpaceOnUse">
<stop stop-color="white" stop-opacity="0"/>
<stop offset="1" stop-color="white" stop-opacity="0.3"/>
</linearGradient>
<clipPath id="clip0_2067_5375">
<rect width="172.1" height="198.736" fill="white" transform="translate(0 0.419678)"/>
</clipPath>
<clipPath id="clip1_2067_5375">
<rect width="120" height="112.1" fill="white" transform="translate(26 43.4197)"/>
</clipPath>
</defs>
</svg>
