<svg width="478" height="551" viewBox="0 0 478 551" fill="none" xmlns="http://www.w3.org/2000/svg">
<path opacity="0.48" d="M476.742 413.092V138.437L238.845 1.41943L1.2583 138.437V413.092L238.845 550.42L476.742 413.092Z" fill="url(#paint0_linear_2067_5373)"/>
<path d="M476.259 137.644V412.299L238.362 549.626V274.971L476.259 137.644Z" fill="url(#paint1_linear_2067_5373)"/>
<path d="M238.361 549.626V274.971L0.774414 137.644V412.299L238.361 549.626Z" fill="url(#paint2_linear_2067_5373)"/>
<path d="M0.258301 137.54L238.155 274.868L475.845 137.747L238.052 0.419434L0.258301 137.54Z" fill="url(#paint3_linear_2067_5373)"/>
<path d="M476.258 137.644L238.361 274.971L0.774414 137.644L238.361 0.625854L476.258 137.644Z" fill="url(#paint4_linear_2067_5373)"/>
<path d="M476.742 413.092V138.437L238.845 1.41943L120.052 69.9283L1.2583 138.437V413.092L238.845 550.42L476.742 413.092Z" stroke="white" stroke-miterlimit="10"/>
<path d="M370.51 143.787H108.658" stroke="white" stroke-miterlimit="10"/>
<path d="M108.658 405.536H370.51" stroke="white" stroke-miterlimit="10"/>
<path d="M370.51 143.787H108.658" stroke="white" stroke-miterlimit="10"/>
<path d="M108.658 405.536H370.51" stroke="white" stroke-miterlimit="10"/>
<path d="M370.51 143.787H108.658" stroke="white" stroke-miterlimit="10"/>
<path d="M108.658 405.536H370.51" stroke="white" stroke-miterlimit="10"/>
<path d="M370.51 274.713H108.658" stroke="white" stroke-miterlimit="10"/>
<path d="M239.584 405.742L174.121 340.176L108.658 274.713L174.121 209.147L239.584 143.581" stroke="white" stroke-miterlimit="10"/>
<path d="M370.51 405.742L305.047 340.176L239.584 274.713L305.047 209.147L370.51 143.581" stroke="white" stroke-miterlimit="10"/>
<path d="M239.584 143.581L305.047 209.147L370.51 274.713L305.047 340.279L239.584 405.845" stroke="white" stroke-miterlimit="10"/>
<path d="M108.658 143.581L174.121 209.147L239.584 274.713L174.121 340.176L108.658 405.742" stroke="white" stroke-miterlimit="10"/>
<path d="M370.613 143.581L305.047 274.61L239.481 405.639L173.915 274.61L108.452 143.581" stroke="white" stroke-miterlimit="10"/>
<path d="M108.452 405.536L174.018 274.507L239.584 143.581L305.151 274.61L370.717 405.639" stroke="white" stroke-miterlimit="10"/>
<path d="M369.994 290.098C378.254 290.098 384.862 283.386 384.862 275.229C384.862 266.969 378.151 260.361 369.994 260.361C361.733 260.361 355.125 267.072 355.125 275.229C355.022 283.386 361.733 290.098 369.994 290.098Z" fill="white"/>
<path d="M369.994 290.098C378.254 290.098 384.862 283.386 384.862 275.229C384.862 266.969 378.151 260.361 369.994 260.361C361.733 260.361 355.125 267.072 355.125 275.229C355.022 283.386 361.733 290.098 369.994 290.098Z" fill="white"/>
<path d="M369.994 290.098C378.254 290.098 384.862 283.386 384.862 275.229C384.862 266.969 378.151 260.361 369.994 260.361C361.733 260.361 355.125 267.072 355.125 275.229C355.022 283.386 361.733 290.098 369.994 290.098Z" fill="white"/>
<path d="M369.994 290.098C378.254 290.098 384.862 283.386 384.862 275.229C384.862 266.969 378.151 260.361 369.994 260.361C361.733 260.361 355.125 267.072 355.125 275.229C355.022 283.386 361.733 290.098 369.994 290.098Z" fill="white"/>
<path d="M369.994 159.172C378.254 159.172 384.862 152.461 384.862 144.304C384.862 136.043 378.151 129.435 369.994 129.435C361.733 129.435 355.125 136.147 355.125 144.304C355.022 152.461 361.733 159.172 369.994 159.172Z" fill="white"/>
<path d="M369.994 159.172C378.254 159.172 384.862 152.461 384.862 144.304C384.862 136.043 378.151 129.435 369.994 129.435C361.733 129.435 355.125 136.147 355.125 144.304C355.022 152.461 361.733 159.172 369.994 159.172Z" fill="white"/>
<path d="M369.994 159.172C378.254 159.172 384.862 152.461 384.862 144.304C384.862 136.043 378.151 129.435 369.994 129.435C361.733 129.435 355.125 136.147 355.125 144.304C355.022 152.461 361.733 159.172 369.994 159.172Z" fill="white"/>
<path d="M369.994 159.172C378.254 159.172 384.862 152.461 384.862 144.304C384.862 136.043 378.151 129.435 369.994 129.435C361.733 129.435 355.125 136.147 355.125 144.304C355.022 152.461 361.733 159.172 369.994 159.172Z" fill="white"/>
<path d="M369.994 421.024C378.254 421.024 384.862 414.312 384.862 406.155C384.862 397.895 378.151 391.287 369.994 391.287C361.733 391.287 355.125 397.998 355.125 406.155C355.022 414.312 361.733 421.024 369.994 421.024Z" fill="white"/>
<path d="M369.994 421.024C378.254 421.024 384.862 414.312 384.862 406.155C384.862 397.895 378.151 391.287 369.994 391.287C361.733 391.287 355.125 397.998 355.125 406.155C355.022 414.312 361.733 421.024 369.994 421.024Z" fill="white"/>
<path d="M369.994 421.024C378.254 421.024 384.862 414.312 384.862 406.155C384.862 397.895 378.151 391.287 369.994 391.287C361.733 391.287 355.125 397.998 355.125 406.155C355.022 414.312 361.733 421.024 369.994 421.024Z" fill="white"/>
<path d="M369.994 421.024C378.254 421.024 384.862 414.312 384.862 406.155C384.862 397.895 378.151 391.287 369.994 391.287C361.733 391.287 355.125 397.998 355.125 406.155C355.022 414.312 361.733 421.024 369.994 421.024Z" fill="white"/>
<path d="M239.068 290.098C247.329 290.098 253.937 283.386 253.937 275.229C253.937 266.969 247.225 260.361 239.068 260.361C230.808 260.361 224.2 267.072 224.2 275.229C224.2 283.386 230.808 290.098 239.068 290.098Z" fill="white"/>
<path d="M239.068 290.098C247.329 290.098 253.937 283.386 253.937 275.229C253.937 266.969 247.225 260.361 239.068 260.361C230.808 260.361 224.2 267.072 224.2 275.229C224.2 283.386 230.808 290.098 239.068 290.098Z" fill="white"/>
<path d="M239.068 290.098C247.329 290.098 253.937 283.386 253.937 275.229C253.937 266.969 247.225 260.361 239.068 260.361C230.808 260.361 224.2 267.072 224.2 275.229C224.2 283.386 230.808 290.098 239.068 290.098Z" fill="white"/>
<path d="M239.068 290.098C247.329 290.098 253.937 283.386 253.937 275.229C253.937 266.969 247.225 260.361 239.068 260.361C230.808 260.361 224.2 267.072 224.2 275.229C224.2 283.386 230.808 290.098 239.068 290.098Z" fill="white"/>
<g opacity="0.5">
<g opacity="0.5">
<path opacity="0.5" d="M239.068 300.114C252.801 300.114 263.952 288.962 263.952 275.229C263.952 261.497 252.801 250.345 239.068 250.345C225.335 250.345 214.184 261.497 214.184 275.229C214.081 288.962 225.232 300.114 239.068 300.114Z" fill="white"/>
</g>
<g opacity="0.5">
<path opacity="0.5" d="M239.068 300.114C252.801 300.114 263.952 288.962 263.952 275.229C263.952 261.497 252.801 250.345 239.068 250.345C225.335 250.345 214.184 261.497 214.184 275.229C214.081 288.962 225.232 300.114 239.068 300.114Z" fill="white"/>
</g>
<g opacity="0.5">
<path opacity="0.5" d="M239.068 300.114C252.801 300.114 263.952 288.962 263.952 275.229C263.952 261.497 252.801 250.345 239.068 250.345C225.335 250.345 214.184 261.497 214.184 275.229C214.081 288.962 225.232 300.114 239.068 300.114Z" fill="white"/>
</g>
<g opacity="0.5">
<path opacity="0.5" d="M239.068 300.114C252.801 300.114 263.952 288.962 263.952 275.229C263.952 261.497 252.801 250.345 239.068 250.345C225.335 250.345 214.184 261.497 214.184 275.229C214.081 288.962 225.232 300.114 239.068 300.114Z" fill="white"/>
</g>
</g>
<g opacity="0.5">
<g opacity="0.5">
<path opacity="0.5" d="M239.068 431.039C252.801 431.039 263.952 419.888 263.952 406.155C263.952 392.422 252.801 381.271 239.068 381.271C225.335 381.271 214.184 392.422 214.184 406.155C214.081 419.888 225.232 431.039 239.068 431.039Z" fill="white"/>
</g>
<g opacity="0.5">
<path opacity="0.5" d="M239.068 431.039C252.801 431.039 263.952 419.888 263.952 406.155C263.952 392.422 252.801 381.271 239.068 381.271C225.335 381.271 214.184 392.422 214.184 406.155C214.081 419.888 225.232 431.039 239.068 431.039Z" fill="white"/>
</g>
<g opacity="0.5">
<path opacity="0.5" d="M239.068 431.039C252.801 431.039 263.952 419.888 263.952 406.155C263.952 392.422 252.801 381.271 239.068 381.271C225.335 381.271 214.184 392.422 214.184 406.155C214.081 419.888 225.232 431.039 239.068 431.039Z" fill="white"/>
</g>
<g opacity="0.5">
<path opacity="0.5" d="M239.068 431.039C252.801 431.039 263.952 419.888 263.952 406.155C263.952 392.422 252.801 381.271 239.068 381.271C225.335 381.271 214.184 392.422 214.184 406.155C214.081 419.888 225.232 431.039 239.068 431.039Z" fill="white"/>
</g>
</g>
<g opacity="0.5">
<g opacity="0.5">
<path opacity="0.5" d="M239.068 169.188C252.801 169.188 263.952 158.036 263.952 144.304C263.952 130.571 252.801 119.419 239.068 119.419C225.335 119.419 214.184 130.571 214.184 144.304C214.081 158.036 225.232 169.188 239.068 169.188Z" fill="white"/>
</g>
<g opacity="0.5">
<path opacity="0.5" d="M239.068 169.188C252.801 169.188 263.952 158.036 263.952 144.304C263.952 130.571 252.801 119.419 239.068 119.419C225.335 119.419 214.184 130.571 214.184 144.304C214.081 158.036 225.232 169.188 239.068 169.188Z" fill="white"/>
</g>
<g opacity="0.5">
<path opacity="0.5" d="M239.068 169.188C252.801 169.188 263.952 158.036 263.952 144.304C263.952 130.571 252.801 119.419 239.068 119.419C225.335 119.419 214.184 130.571 214.184 144.304C214.081 158.036 225.232 169.188 239.068 169.188Z" fill="white"/>
</g>
<g opacity="0.5">
<path opacity="0.5" d="M239.068 169.188C252.801 169.188 263.952 158.036 263.952 144.304C263.952 130.571 252.801 119.419 239.068 119.419C225.335 119.419 214.184 130.571 214.184 144.304C214.081 158.036 225.232 169.188 239.068 169.188Z" fill="white"/>
</g>
</g>
<g opacity="0.5">
<g opacity="0.5">
<path opacity="0.5" d="M369.994 300.113C383.727 300.113 394.878 288.962 394.878 275.229C394.878 261.497 383.727 250.345 369.994 250.345C356.261 250.345 345.11 261.497 345.11 275.229C345.006 288.962 356.158 300.113 369.994 300.113Z" fill="white"/>
</g>
<g opacity="0.5">
<path opacity="0.5" d="M369.994 300.113C383.727 300.113 394.878 288.962 394.878 275.229C394.878 261.497 383.727 250.345 369.994 250.345C356.261 250.345 345.11 261.497 345.11 275.229C345.006 288.962 356.158 300.113 369.994 300.113Z" fill="white"/>
</g>
<g opacity="0.5">
<path opacity="0.5" d="M369.994 300.113C383.727 300.113 394.878 288.962 394.878 275.229C394.878 261.497 383.727 250.345 369.994 250.345C356.261 250.345 345.11 261.497 345.11 275.229C345.006 288.962 356.158 300.113 369.994 300.113Z" fill="white"/>
</g>
<g opacity="0.5">
<path opacity="0.5" d="M369.994 300.113C383.727 300.113 394.878 288.962 394.878 275.229C394.878 261.497 383.727 250.345 369.994 250.345C356.261 250.345 345.11 261.497 345.11 275.229C345.006 288.962 356.158 300.113 369.994 300.113Z" fill="white"/>
</g>
</g>
<g opacity="0.5">
<g opacity="0.5">
<path opacity="0.5" d="M369.994 431.039C383.727 431.039 394.878 419.888 394.878 406.155C394.878 392.422 383.727 381.271 369.994 381.271C356.261 381.271 345.11 392.422 345.11 406.155C345.006 419.888 356.158 431.039 369.994 431.039Z" fill="white"/>
</g>
<g opacity="0.5">
<path opacity="0.5" d="M369.994 431.039C383.727 431.039 394.878 419.888 394.878 406.155C394.878 392.422 383.727 381.271 369.994 381.271C356.261 381.271 345.11 392.422 345.11 406.155C345.006 419.888 356.158 431.039 369.994 431.039Z" fill="white"/>
</g>
<g opacity="0.5">
<path opacity="0.5" d="M369.994 431.039C383.727 431.039 394.878 419.888 394.878 406.155C394.878 392.422 383.727 381.271 369.994 381.271C356.261 381.271 345.11 392.422 345.11 406.155C345.006 419.888 356.158 431.039 369.994 431.039Z" fill="white"/>
</g>
<g opacity="0.5">
<path opacity="0.5" d="M369.994 431.039C383.727 431.039 394.878 419.888 394.878 406.155C394.878 392.422 383.727 381.271 369.994 381.271C356.261 381.271 345.11 392.422 345.11 406.155C345.006 419.888 356.158 431.039 369.994 431.039Z" fill="white"/>
</g>
</g>
<g opacity="0.5">
<g opacity="0.5">
<path opacity="0.5" d="M369.994 169.188C383.727 169.188 394.878 158.036 394.878 144.304C394.878 130.571 383.727 119.419 369.994 119.419C356.261 119.419 345.11 130.571 345.11 144.304C345.006 158.036 356.158 169.188 369.994 169.188Z" fill="white"/>
</g>
<g opacity="0.5">
<path opacity="0.5" d="M369.994 169.188C383.727 169.188 394.878 158.036 394.878 144.304C394.878 130.571 383.727 119.419 369.994 119.419C356.261 119.419 345.11 130.571 345.11 144.304C345.006 158.036 356.158 169.188 369.994 169.188Z" fill="white"/>
</g>
<g opacity="0.5">
<path opacity="0.5" d="M369.994 169.188C383.727 169.188 394.878 158.036 394.878 144.304C394.878 130.571 383.727 119.419 369.994 119.419C356.261 119.419 345.11 130.571 345.11 144.304C345.006 158.036 356.158 169.188 369.994 169.188Z" fill="white"/>
</g>
<g opacity="0.5">
<path opacity="0.5" d="M369.994 169.188C383.727 169.188 394.878 158.036 394.878 144.304C394.878 130.571 383.727 119.419 369.994 119.419C356.261 119.419 345.11 130.571 345.11 144.304C345.006 158.036 356.158 169.188 369.994 169.188Z" fill="white"/>
</g>
</g>
<path d="M239.068 159.172C247.329 159.172 253.937 152.461 253.937 144.303C253.937 136.043 247.225 129.435 239.068 129.435C230.808 129.435 224.2 136.146 224.2 144.303C224.2 152.461 230.808 159.172 239.068 159.172Z" fill="white"/>
<path d="M239.068 159.172C247.329 159.172 253.937 152.461 253.937 144.303C253.937 136.043 247.225 129.435 239.068 129.435C230.808 129.435 224.2 136.146 224.2 144.303C224.2 152.461 230.808 159.172 239.068 159.172Z" fill="white"/>
<path d="M239.068 159.172C247.329 159.172 253.937 152.461 253.937 144.303C253.937 136.043 247.225 129.435 239.068 129.435C230.808 129.435 224.2 136.146 224.2 144.303C224.2 152.461 230.808 159.172 239.068 159.172Z" fill="white"/>
<path d="M239.068 159.172C247.329 159.172 253.937 152.461 253.937 144.303C253.937 136.043 247.225 129.435 239.068 129.435C230.808 129.435 224.2 136.146 224.2 144.303C224.2 152.461 230.808 159.172 239.068 159.172Z" fill="white"/>
<path d="M239.068 421.024C247.329 421.024 253.937 414.312 253.937 406.155C253.937 397.895 247.225 391.287 239.068 391.287C230.808 391.287 224.2 397.998 224.2 406.155C224.2 414.312 230.808 421.024 239.068 421.024Z" fill="white"/>
<path d="M239.068 421.024C247.329 421.024 253.937 414.312 253.937 406.155C253.937 397.895 247.225 391.287 239.068 391.287C230.808 391.287 224.2 397.998 224.2 406.155C224.2 414.312 230.808 421.024 239.068 421.024Z" fill="white"/>
<path d="M239.068 421.024C247.329 421.024 253.937 414.312 253.937 406.155C253.937 397.895 247.225 391.287 239.068 391.287C230.808 391.287 224.2 397.998 224.2 406.155C224.2 414.312 230.808 421.024 239.068 421.024Z" fill="white"/>
<path d="M239.068 421.024C247.329 421.024 253.937 414.312 253.937 406.155C253.937 397.895 247.225 391.287 239.068 391.287C230.808 391.287 224.2 397.998 224.2 406.155C224.2 414.312 230.808 421.024 239.068 421.024Z" fill="white"/>
<path d="M108.142 290.098C116.402 290.098 123.011 283.386 123.011 275.229C123.011 266.969 116.299 260.361 108.142 260.361C99.8817 260.361 93.2734 267.072 93.2734 275.229C93.2734 283.386 99.8817 290.098 108.142 290.098Z" fill="white"/>
<path d="M108.142 290.098C116.402 290.098 123.011 283.386 123.011 275.229C123.011 266.969 116.299 260.361 108.142 260.361C99.8817 260.361 93.2734 267.072 93.2734 275.229C93.2734 283.386 99.8817 290.098 108.142 290.098Z" fill="white"/>
<path d="M108.142 290.098C116.402 290.098 123.011 283.386 123.011 275.229C123.011 266.969 116.299 260.361 108.142 260.361C99.8817 260.361 93.2734 267.072 93.2734 275.229C93.2734 283.386 99.8817 290.098 108.142 290.098Z" fill="white"/>
<path d="M108.142 290.098C116.402 290.098 123.011 283.386 123.011 275.229C123.011 266.969 116.299 260.361 108.142 260.361C99.8817 260.361 93.2734 267.072 93.2734 275.229C93.2734 283.386 99.8817 290.098 108.142 290.098Z" fill="white"/>
<g opacity="0.5">
<g opacity="0.5">
<path opacity="0.5" d="M108.142 300.113C121.875 300.113 133.027 288.962 133.027 275.229C133.027 261.497 121.875 250.345 108.142 250.345C94.4097 250.345 83.2583 261.497 83.2583 275.229C83.2583 288.962 94.4097 300.113 108.142 300.113Z" fill="white"/>
</g>
<g opacity="0.5">
<path opacity="0.5" d="M108.142 300.113C121.875 300.113 133.027 288.962 133.027 275.229C133.027 261.497 121.875 250.345 108.142 250.345C94.4097 250.345 83.2583 261.497 83.2583 275.229C83.2583 288.962 94.4097 300.113 108.142 300.113Z" fill="white"/>
</g>
<g opacity="0.5">
<path opacity="0.5" d="M108.142 300.113C121.875 300.113 133.027 288.962 133.027 275.229C133.027 261.497 121.875 250.345 108.142 250.345C94.4097 250.345 83.2583 261.497 83.2583 275.229C83.2583 288.962 94.4097 300.113 108.142 300.113Z" fill="white"/>
</g>
<g opacity="0.5">
<path opacity="0.5" d="M108.142 300.113C121.875 300.113 133.027 288.962 133.027 275.229C133.027 261.497 121.875 250.345 108.142 250.345C94.4097 250.345 83.2583 261.497 83.2583 275.229C83.2583 288.962 94.4097 300.113 108.142 300.113Z" fill="white"/>
</g>
</g>
<g opacity="0.5">
<g opacity="0.5">
<path opacity="0.5" d="M108.142 431.039C121.875 431.039 133.027 419.888 133.027 406.155C133.027 392.422 121.875 381.271 108.142 381.271C94.4097 381.271 83.2583 392.422 83.2583 406.155C83.2583 419.888 94.4097 431.039 108.142 431.039Z" fill="white"/>
</g>
<g opacity="0.5">
<path opacity="0.5" d="M108.142 431.039C121.875 431.039 133.027 419.888 133.027 406.155C133.027 392.422 121.875 381.271 108.142 381.271C94.4097 381.271 83.2583 392.422 83.2583 406.155C83.2583 419.888 94.4097 431.039 108.142 431.039Z" fill="white"/>
</g>
<g opacity="0.5">
<path opacity="0.5" d="M108.142 431.039C121.875 431.039 133.027 419.888 133.027 406.155C133.027 392.422 121.875 381.271 108.142 381.271C94.4097 381.271 83.2583 392.422 83.2583 406.155C83.2583 419.888 94.4097 431.039 108.142 431.039Z" fill="white"/>
</g>
<g opacity="0.5">
<path opacity="0.5" d="M108.142 431.039C121.875 431.039 133.027 419.888 133.027 406.155C133.027 392.422 121.875 381.271 108.142 381.271C94.4097 381.271 83.2583 392.422 83.2583 406.155C83.2583 419.888 94.4097 431.039 108.142 431.039Z" fill="white"/>
</g>
</g>
<g opacity="0.5">
<g opacity="0.5">
<path opacity="0.5" d="M108.142 169.188C121.875 169.188 133.027 158.036 133.027 144.304C133.027 130.571 121.875 119.419 108.142 119.419C94.4097 119.419 83.2583 130.571 83.2583 144.304C83.2583 158.036 94.4097 169.188 108.142 169.188Z" fill="white"/>
</g>
<g opacity="0.5">
<path opacity="0.5" d="M108.142 169.188C121.875 169.188 133.027 158.036 133.027 144.304C133.027 130.571 121.875 119.419 108.142 119.419C94.4097 119.419 83.2583 130.571 83.2583 144.304C83.2583 158.036 94.4097 169.188 108.142 169.188Z" fill="white"/>
</g>
<g opacity="0.5">
<path opacity="0.5" d="M108.142 169.188C121.875 169.188 133.027 158.036 133.027 144.304C133.027 130.571 121.875 119.419 108.142 119.419C94.4097 119.419 83.2583 130.571 83.2583 144.304C83.2583 158.036 94.4097 169.188 108.142 169.188Z" fill="white"/>
</g>
<g opacity="0.5">
<path opacity="0.5" d="M108.142 169.188C121.875 169.188 133.027 158.036 133.027 144.304C133.027 130.571 121.875 119.419 108.142 119.419C94.4097 119.419 83.2583 130.571 83.2583 144.304C83.2583 158.036 94.4097 169.188 108.142 169.188Z" fill="white"/>
</g>
</g>
<path d="M108.142 159.172C116.402 159.172 123.011 152.461 123.011 144.303C123.011 136.043 116.299 129.435 108.142 129.435C99.8817 129.435 93.2734 136.146 93.2734 144.303C93.2734 152.461 99.8817 159.172 108.142 159.172Z" fill="white"/>
<path d="M108.142 159.172C116.402 159.172 123.011 152.461 123.011 144.303C123.011 136.043 116.299 129.435 108.142 129.435C99.8817 129.435 93.2734 136.146 93.2734 144.303C93.2734 152.461 99.8817 159.172 108.142 159.172Z" fill="white"/>
<path d="M108.142 159.172C116.402 159.172 123.011 152.461 123.011 144.303C123.011 136.043 116.299 129.435 108.142 129.435C99.8817 129.435 93.2734 136.146 93.2734 144.303C93.2734 152.461 99.8817 159.172 108.142 159.172Z" fill="white"/>
<path d="M108.142 159.172C116.402 159.172 123.011 152.461 123.011 144.303C123.011 136.043 116.299 129.435 108.142 129.435C99.8817 129.435 93.2734 136.146 93.2734 144.303C93.2734 152.461 99.8817 159.172 108.142 159.172Z" fill="white"/>
<path d="M108.142 421.024C116.402 421.024 123.011 414.312 123.011 406.155C123.011 397.895 116.299 391.287 108.142 391.287C99.8817 391.287 93.2734 397.998 93.2734 406.155C93.2734 414.312 99.8817 421.024 108.142 421.024Z" fill="white"/>
<path d="M108.142 421.024C116.402 421.024 123.011 414.312 123.011 406.155C123.011 397.895 116.299 391.287 108.142 391.287C99.8817 391.287 93.2734 397.998 93.2734 406.155C93.2734 414.312 99.8817 421.024 108.142 421.024Z" fill="white"/>
<path d="M108.142 421.024C116.402 421.024 123.011 414.312 123.011 406.155C123.011 397.895 116.299 391.287 108.142 391.287C99.8817 391.287 93.2734 397.998 93.2734 406.155C93.2734 414.312 99.8817 421.024 108.142 421.024Z" fill="white"/>
<path d="M108.142 421.024C116.402 421.024 123.011 414.312 123.011 406.155C123.011 397.895 116.299 391.287 108.142 391.287C99.8817 391.287 93.2734 397.998 93.2734 406.155C93.2734 414.312 99.8817 421.024 108.142 421.024Z" fill="white"/>
<defs>
<linearGradient id="paint0_linear_2067_5373" x1="-4.27568" y1="505.21" x2="478.977" y2="49.4736" gradientUnits="userSpaceOnUse">
<stop stop-color="white" stop-opacity="0"/>
<stop offset="0.4639" stop-color="#FB6E4E"/>
<stop offset="1" stop-color="#F61B7E" stop-opacity="0.8"/>
</linearGradient>
<linearGradient id="paint1_linear_2067_5373" x1="357.344" y1="137.648" x2="357.344" y2="549.674" gradientUnits="userSpaceOnUse">
<stop stop-color="white" stop-opacity="0"/>
<stop offset="1" stop-color="white" stop-opacity="0.3"/>
</linearGradient>
<linearGradient id="paint2_linear_2067_5373" x1="121.195" y1="143.086" x2="117.938" y2="555.298" gradientUnits="userSpaceOnUse">
<stop stop-color="white" stop-opacity="0.3"/>
<stop offset="1" stop-color="white" stop-opacity="0"/>
</linearGradient>
<linearGradient id="paint3_linear_2067_5373" x1="411.02" y1="239.307" x2="55.6627" y2="30.3804" gradientUnits="userSpaceOnUse">
<stop stop-color="white" stop-opacity="0.3"/>
<stop offset="1" stop-color="white" stop-opacity="0"/>
</linearGradient>
<linearGradient id="paint4_linear_2067_5373" x1="238.552" y1="274.982" x2="238.552" y2="0.602206" gradientUnits="userSpaceOnUse">
<stop stop-color="white" stop-opacity="0"/>
<stop offset="1" stop-color="white" stop-opacity="0.3"/>
</linearGradient>
</defs>
</svg>
