<svg width="174" height="201" viewBox="0 0 174 201" fill="none" xmlns="http://www.w3.org/2000/svg">
<path d="M173.096 50.7412V150.162L86.9946 199.874V100.449L173.096 50.7412Z" fill="url(#paint0_linear_2045_5402)"/>
<path d="M86.9931 199.874V100.449L1 50.7412V150.162L86.9931 199.874Z" fill="url(#paint1_linear_2045_5402)"/>
<path d="M173.1 51.0247L86.9957 100.738L1 51.0247L86.9957 1.41968L173.1 51.0247Z" fill="url(#paint2_linear_2045_5402)"/>
<path d="M173.095 150.443V51.0232L86.9931 1.41968L1 51.0232V150.443L86.9931 200.156L173.095 150.443Z" stroke="white" stroke-miterlimit="10"/>
<g style="mix-blend-mode:lighten">
<g style="mix-blend-mode:lighten">
<path d="M134.789 53.1255H40.0244" stroke="white" stroke-miterlimit="10"/>
</g>
<g style="mix-blend-mode:lighten">
<path d="M40.0244 147.887H134.789" stroke="white" stroke-miterlimit="10"/>
</g>
<g style="mix-blend-mode:lighten">
<path d="M134.789 53.1255H40.0244" stroke="white" stroke-miterlimit="10"/>
</g>
<g style="mix-blend-mode:lighten">
<path d="M40.0244 147.887H134.789" stroke="white" stroke-miterlimit="10"/>
</g>
<g style="mix-blend-mode:lighten">
<path d="M134.789 53.1255H40.0244" stroke="white" stroke-miterlimit="10"/>
</g>
<g style="mix-blend-mode:lighten">
<path d="M40.0244 147.887H134.789" stroke="white" stroke-miterlimit="10"/>
</g>
<g style="mix-blend-mode:lighten">
<path d="M134.789 100.506H40.0244" stroke="white" stroke-miterlimit="10"/>
</g>
<g style="mix-blend-mode:lighten">
<path d="M87.405 147.947L63.7166 124.225L40.0244 100.506L63.7166 76.784L87.405 53.0657" stroke="white" stroke-miterlimit="10"/>
</g>
<g style="mix-blend-mode:lighten">
<path d="M134.791 147.947L111.098 124.225L87.4062 100.506L111.098 76.784L134.791 53.0657" stroke="white" stroke-miterlimit="10"/>
</g>
<g style="mix-blend-mode:lighten">
<path d="M87.4062 53.0657L111.098 76.784L134.791 100.506L111.098 124.225L87.4062 147.947" stroke="white" stroke-miterlimit="10"/>
</g>
<g style="mix-blend-mode:lighten">
<path d="M40.0244 53.0657L63.7166 76.784L87.405 100.506L63.7166 124.225L40.0244 147.947" stroke="white" stroke-miterlimit="10"/>
</g>
<g style="mix-blend-mode:lighten">
<path d="M134.853 53.0657L111.131 100.476L87.4088 147.887L63.6904 100.476L39.9683 53.0657" stroke="white" stroke-miterlimit="10"/>
</g>
<g style="mix-blend-mode:lighten">
<path d="M39.9683 147.887L63.6904 100.476L87.4088 53.0657L111.131 100.476L134.853 147.887" stroke="white" stroke-miterlimit="10"/>
</g>
<g style="mix-blend-mode:lighten">
<path d="M134.611 106.078C137.587 106.078 140 103.666 140 100.69C140 97.7133 137.587 95.3007 134.611 95.3007C131.635 95.3007 129.222 97.7133 129.222 100.69C129.222 103.666 131.635 106.078 134.611 106.078Z" fill="white"/>
</g>
<g style="mix-blend-mode:lighten">
<path d="M134.611 106.078C137.587 106.078 140 103.666 140 100.69C140 97.7133 137.587 95.3007 134.611 95.3007C131.635 95.3007 129.222 97.7133 129.222 100.69C129.222 103.666 131.635 106.078 134.611 106.078Z" fill="white"/>
</g>
<g style="mix-blend-mode:lighten">
<path d="M134.611 106.078C137.587 106.078 140 103.666 140 100.69C140 97.7133 137.587 95.3007 134.611 95.3007C131.635 95.3007 129.222 97.7133 129.222 100.69C129.222 103.666 131.635 106.078 134.611 106.078Z" fill="white"/>
</g>
<g style="mix-blend-mode:lighten">
<path d="M134.611 106.078C137.587 106.078 140 103.666 140 100.69C140 97.7133 137.587 95.3007 134.611 95.3007C131.635 95.3007 129.222 97.7133 129.222 100.69C129.222 103.666 131.635 106.078 134.611 106.078Z" fill="white"/>
</g>
<g style="mix-blend-mode:lighten">
<path d="M134.611 58.698C137.587 58.698 140 56.2853 140 53.3091C140 50.333 137.587 47.9203 134.611 47.9203C131.635 47.9203 129.222 50.333 129.222 53.3091C129.222 56.2853 131.635 58.698 134.611 58.698Z" fill="white"/>
</g>
<g style="mix-blend-mode:lighten">
<path d="M134.611 58.698C137.587 58.698 140 56.2853 140 53.3091C140 50.333 137.587 47.9203 134.611 47.9203C131.635 47.9203 129.222 50.333 129.222 53.3091C129.222 56.2853 131.635 58.698 134.611 58.698Z" fill="white"/>
</g>
<g style="mix-blend-mode:lighten">
<path d="M134.611 58.698C137.587 58.698 140 56.2853 140 53.3091C140 50.333 137.587 47.9203 134.611 47.9203C131.635 47.9203 129.222 50.333 129.222 53.3091C129.222 56.2853 131.635 58.698 134.611 58.698Z" fill="white"/>
</g>
<g style="mix-blend-mode:lighten">
<path d="M134.611 58.698C137.587 58.698 140 56.2853 140 53.3091C140 50.333 137.587 47.9203 134.611 47.9203C131.635 47.9203 129.222 50.333 129.222 53.3091C129.222 56.2853 131.635 58.698 134.611 58.698Z" fill="white"/>
</g>
<g style="mix-blend-mode:lighten">
<path d="M134.611 153.459C137.587 153.459 140 151.046 140 148.07C140 145.094 137.587 142.681 134.611 142.681C131.635 142.681 129.222 145.094 129.222 148.07C129.222 151.046 131.635 153.459 134.611 153.459Z" fill="white"/>
</g>
<g style="mix-blend-mode:lighten">
<path d="M134.611 153.459C137.587 153.459 140 151.046 140 148.07C140 145.094 137.587 142.681 134.611 142.681C131.635 142.681 129.222 145.094 129.222 148.07C129.222 151.046 131.635 153.459 134.611 153.459Z" fill="white"/>
</g>
<g style="mix-blend-mode:lighten">
<path d="M134.611 153.459C137.587 153.459 140 151.046 140 148.07C140 145.094 137.587 142.681 134.611 142.681C131.635 142.681 129.222 145.094 129.222 148.07C129.222 151.046 131.635 153.459 134.611 153.459Z" fill="white"/>
</g>
<g style="mix-blend-mode:lighten">
<path d="M134.611 153.459C137.587 153.459 140 151.046 140 148.07C140 145.094 137.587 142.681 134.611 142.681C131.635 142.681 129.222 145.094 129.222 148.07C129.222 151.046 131.635 153.459 134.611 153.459Z" fill="white"/>
</g>
<g style="mix-blend-mode:lighten">
<path d="M87.2223 106.078C90.1985 106.078 92.6112 103.666 92.6112 100.69C92.6112 97.7133 90.1985 95.3007 87.2223 95.3007C84.2462 95.3007 81.8335 97.7133 81.8335 100.69C81.8335 103.666 84.2462 106.078 87.2223 106.078Z" fill="white"/>
</g>
<g style="mix-blend-mode:lighten">
<path d="M87.2223 106.078C90.1985 106.078 92.6112 103.666 92.6112 100.69C92.6112 97.7133 90.1985 95.3007 87.2223 95.3007C84.2462 95.3007 81.8335 97.7133 81.8335 100.69C81.8335 103.666 84.2462 106.078 87.2223 106.078Z" fill="white"/>
</g>
<g style="mix-blend-mode:lighten">
<path d="M87.2223 106.078C90.1985 106.078 92.6112 103.666 92.6112 100.69C92.6112 97.7133 90.1985 95.3007 87.2223 95.3007C84.2462 95.3007 81.8335 97.7133 81.8335 100.69C81.8335 103.666 84.2462 106.078 87.2223 106.078Z" fill="white"/>
</g>
<g style="mix-blend-mode:lighten">
<path d="M87.2223 106.078C90.1985 106.078 92.6112 103.666 92.6112 100.69C92.6112 97.7133 90.1985 95.3007 87.2223 95.3007C84.2462 95.3007 81.8335 97.7133 81.8335 100.69C81.8335 103.666 84.2462 106.078 87.2223 106.078Z" fill="white"/>
</g>
<g style="mix-blend-mode:lighten" opacity="0.5">
<g style="mix-blend-mode:lighten" opacity="0.5">
<path d="M87.2242 109.712C92.2073 109.712 96.2468 105.673 96.2468 100.69C96.2468 95.7065 92.2073 91.667 87.2242 91.667C82.2412 91.667 78.2017 95.7065 78.2017 100.69C78.2017 105.673 82.2412 109.712 87.2242 109.712Z" fill="white"/>
</g>
<g style="mix-blend-mode:lighten" opacity="0.5">
<path d="M87.2242 109.712C92.2073 109.712 96.2468 105.673 96.2468 100.69C96.2468 95.7065 92.2073 91.667 87.2242 91.667C82.2412 91.667 78.2017 95.7065 78.2017 100.69C78.2017 105.673 82.2412 109.712 87.2242 109.712Z" fill="white"/>
</g>
<g style="mix-blend-mode:lighten" opacity="0.5">
<path d="M87.2242 109.712C92.2073 109.712 96.2468 105.673 96.2468 100.69C96.2468 95.7065 92.2073 91.667 87.2242 91.667C82.2412 91.667 78.2017 95.7065 78.2017 100.69C78.2017 105.673 82.2412 109.712 87.2242 109.712Z" fill="white"/>
</g>
<g style="mix-blend-mode:lighten" opacity="0.5">
<path d="M87.2242 109.712C92.2073 109.712 96.2468 105.673 96.2468 100.69C96.2468 95.7065 92.2073 91.667 87.2242 91.667C82.2412 91.667 78.2017 95.7065 78.2017 100.69C78.2017 105.673 82.2412 109.712 87.2242 109.712Z" fill="white"/>
</g>
</g>
<g style="mix-blend-mode:lighten" opacity="0.5">
<g style="mix-blend-mode:lighten" opacity="0.5">
<path d="M87.2242 157.093C92.2073 157.093 96.2468 153.053 96.2468 148.07C96.2468 143.087 92.2073 139.048 87.2242 139.048C82.2412 139.048 78.2017 143.087 78.2017 148.07C78.2017 153.053 82.2412 157.093 87.2242 157.093Z" fill="white"/>
</g>
<g style="mix-blend-mode:lighten" opacity="0.5">
<path d="M87.2242 157.093C92.2073 157.093 96.2468 153.053 96.2468 148.07C96.2468 143.087 92.2073 139.048 87.2242 139.048C82.2412 139.048 78.2017 143.087 78.2017 148.07C78.2017 153.053 82.2412 157.093 87.2242 157.093Z" fill="white"/>
</g>
<g style="mix-blend-mode:lighten" opacity="0.5">
<path d="M87.2242 157.093C92.2073 157.093 96.2468 153.053 96.2468 148.07C96.2468 143.087 92.2073 139.048 87.2242 139.048C82.2412 139.048 78.2017 143.087 78.2017 148.07C78.2017 153.053 82.2412 157.093 87.2242 157.093Z" fill="white"/>
</g>
<g style="mix-blend-mode:lighten" opacity="0.5">
<path d="M87.2242 157.093C92.2073 157.093 96.2468 153.053 96.2468 148.07C96.2468 143.087 92.2073 139.048 87.2242 139.048C82.2412 139.048 78.2017 143.087 78.2017 148.07C78.2017 153.053 82.2412 157.093 87.2242 157.093Z" fill="white"/>
</g>
</g>
<g style="mix-blend-mode:lighten" opacity="0.5">
<g style="mix-blend-mode:lighten" opacity="0.5">
<path d="M87.2242 62.3315C92.2073 62.3315 96.2468 58.292 96.2468 53.3089C96.2468 48.3259 92.2073 44.2864 87.2242 44.2864C82.2412 44.2864 78.2017 48.3259 78.2017 53.3089C78.2017 58.292 82.2412 62.3315 87.2242 62.3315Z" fill="white"/>
</g>
<g style="mix-blend-mode:lighten" opacity="0.5">
<path d="M87.2242 62.3315C92.2073 62.3315 96.2468 58.292 96.2468 53.3089C96.2468 48.3259 92.2073 44.2864 87.2242 44.2864C82.2412 44.2864 78.2017 48.3259 78.2017 53.3089C78.2017 58.292 82.2412 62.3315 87.2242 62.3315Z" fill="white"/>
</g>
<g style="mix-blend-mode:lighten" opacity="0.5">
<path d="M87.2242 62.3315C92.2073 62.3315 96.2468 58.292 96.2468 53.3089C96.2468 48.3259 92.2073 44.2864 87.2242 44.2864C82.2412 44.2864 78.2017 48.3259 78.2017 53.3089C78.2017 58.292 82.2412 62.3315 87.2242 62.3315Z" fill="white"/>
</g>
<g style="mix-blend-mode:lighten" opacity="0.5">
<path d="M87.2242 62.3315C92.2073 62.3315 96.2468 58.292 96.2468 53.3089C96.2468 48.3259 92.2073 44.2864 87.2242 44.2864C82.2412 44.2864 78.2017 48.3259 78.2017 53.3089C78.2017 58.292 82.2412 62.3315 87.2242 62.3315Z" fill="white"/>
</g>
</g>
<g style="mix-blend-mode:lighten" opacity="0.5">
<g style="mix-blend-mode:lighten" opacity="0.5">
<path d="M134.612 109.712C139.595 109.712 143.634 105.673 143.634 100.69C143.634 95.7067 139.595 91.6672 134.612 91.6672C129.629 91.6672 125.589 95.7067 125.589 100.69C125.589 105.673 129.629 109.712 134.612 109.712Z" fill="white"/>
</g>
<g style="mix-blend-mode:lighten" opacity="0.5">
<path d="M134.612 109.712C139.595 109.712 143.634 105.673 143.634 100.69C143.634 95.7067 139.595 91.6672 134.612 91.6672C129.629 91.6672 125.589 95.7067 125.589 100.69C125.589 105.673 129.629 109.712 134.612 109.712Z" fill="white"/>
</g>
<g style="mix-blend-mode:lighten" opacity="0.5">
<path d="M134.612 109.712C139.595 109.712 143.634 105.673 143.634 100.69C143.634 95.7067 139.595 91.6672 134.612 91.6672C129.629 91.6672 125.589 95.7067 125.589 100.69C125.589 105.673 129.629 109.712 134.612 109.712Z" fill="white"/>
</g>
<g style="mix-blend-mode:lighten" opacity="0.5">
<path d="M134.612 109.712C139.595 109.712 143.634 105.673 143.634 100.69C143.634 95.7067 139.595 91.6672 134.612 91.6672C129.629 91.6672 125.589 95.7067 125.589 100.69C125.589 105.673 129.629 109.712 134.612 109.712Z" fill="white"/>
</g>
</g>
<g style="mix-blend-mode:lighten" opacity="0.5">
<g style="mix-blend-mode:lighten" opacity="0.5">
<path d="M134.612 157.093C139.595 157.093 143.634 153.053 143.634 148.07C143.634 143.087 139.595 139.048 134.612 139.048C129.629 139.048 125.589 143.087 125.589 148.07C125.589 153.053 129.629 157.093 134.612 157.093Z" fill="white"/>
</g>
<g style="mix-blend-mode:lighten" opacity="0.5">
<path d="M134.612 157.093C139.595 157.093 143.634 153.053 143.634 148.07C143.634 143.087 139.595 139.048 134.612 139.048C129.629 139.048 125.589 143.087 125.589 148.07C125.589 153.053 129.629 157.093 134.612 157.093Z" fill="white"/>
</g>
<g style="mix-blend-mode:lighten" opacity="0.5">
<path d="M134.612 157.093C139.595 157.093 143.634 153.053 143.634 148.07C143.634 143.087 139.595 139.048 134.612 139.048C129.629 139.048 125.589 143.087 125.589 148.07C125.589 153.053 129.629 157.093 134.612 157.093Z" fill="white"/>
</g>
<g style="mix-blend-mode:lighten" opacity="0.5">
<path d="M134.612 157.093C139.595 157.093 143.634 153.053 143.634 148.07C143.634 143.087 139.595 139.048 134.612 139.048C129.629 139.048 125.589 143.087 125.589 148.07C125.589 153.053 129.629 157.093 134.612 157.093Z" fill="white"/>
</g>
</g>
<g style="mix-blend-mode:lighten" opacity="0.5">
<g style="mix-blend-mode:lighten" opacity="0.5">
<path d="M134.612 62.3316C139.595 62.3316 143.634 58.2921 143.634 53.3091C143.634 48.326 139.595 44.2865 134.612 44.2865C129.629 44.2865 125.589 48.326 125.589 53.3091C125.589 58.2921 129.629 62.3316 134.612 62.3316Z" fill="white"/>
</g>
<g style="mix-blend-mode:lighten" opacity="0.5">
<path d="M134.612 62.3316C139.595 62.3316 143.634 58.2921 143.634 53.3091C143.634 48.326 139.595 44.2865 134.612 44.2865C129.629 44.2865 125.589 48.326 125.589 53.3091C125.589 58.2921 129.629 62.3316 134.612 62.3316Z" fill="white"/>
</g>
<g style="mix-blend-mode:lighten" opacity="0.5">
<path d="M134.612 62.3316C139.595 62.3316 143.634 58.2921 143.634 53.3091C143.634 48.326 139.595 44.2865 134.612 44.2865C129.629 44.2865 125.589 48.326 125.589 53.3091C125.589 58.2921 129.629 62.3316 134.612 62.3316Z" fill="white"/>
</g>
<g style="mix-blend-mode:lighten" opacity="0.5">
<path d="M134.612 62.3316C139.595 62.3316 143.634 58.2921 143.634 53.3091C143.634 48.326 139.595 44.2865 134.612 44.2865C129.629 44.2865 125.589 48.326 125.589 53.3091C125.589 58.2921 129.629 62.3316 134.612 62.3316Z" fill="white"/>
</g>
</g>
<g style="mix-blend-mode:lighten">
<path d="M87.2223 58.698C90.1985 58.698 92.6112 56.2853 92.6112 53.3091C92.6112 50.333 90.1985 47.9203 87.2223 47.9203C84.2462 47.9203 81.8335 50.333 81.8335 53.3091C81.8335 56.2853 84.2462 58.698 87.2223 58.698Z" fill="white"/>
</g>
<g style="mix-blend-mode:lighten">
<path d="M87.2223 58.698C90.1985 58.698 92.6112 56.2853 92.6112 53.3091C92.6112 50.333 90.1985 47.9203 87.2223 47.9203C84.2462 47.9203 81.8335 50.333 81.8335 53.3091C81.8335 56.2853 84.2462 58.698 87.2223 58.698Z" fill="white"/>
</g>
<g style="mix-blend-mode:lighten">
<path d="M87.2223 58.698C90.1985 58.698 92.6112 56.2853 92.6112 53.3091C92.6112 50.333 90.1985 47.9203 87.2223 47.9203C84.2462 47.9203 81.8335 50.333 81.8335 53.3091C81.8335 56.2853 84.2462 58.698 87.2223 58.698Z" fill="white"/>
</g>
<g style="mix-blend-mode:lighten">
<path d="M87.2223 58.698C90.1985 58.698 92.6112 56.2853 92.6112 53.3091C92.6112 50.333 90.1985 47.9203 87.2223 47.9203C84.2462 47.9203 81.8335 50.333 81.8335 53.3091C81.8335 56.2853 84.2462 58.698 87.2223 58.698Z" fill="white"/>
</g>
<g style="mix-blend-mode:lighten">
<path d="M87.2223 153.459C90.1985 153.459 92.6112 151.046 92.6112 148.07C92.6112 145.094 90.1985 142.681 87.2223 142.681C84.2462 142.681 81.8335 145.094 81.8335 148.07C81.8335 151.046 84.2462 153.459 87.2223 153.459Z" fill="white"/>
</g>
<g style="mix-blend-mode:lighten">
<path d="M87.2223 153.459C90.1985 153.459 92.6112 151.046 92.6112 148.07C92.6112 145.094 90.1985 142.681 87.2223 142.681C84.2462 142.681 81.8335 145.094 81.8335 148.07C81.8335 151.046 84.2462 153.459 87.2223 153.459Z" fill="white"/>
</g>
<g style="mix-blend-mode:lighten">
<path d="M87.2223 153.459C90.1985 153.459 92.6112 151.046 92.6112 148.07C92.6112 145.094 90.1985 142.681 87.2223 142.681C84.2462 142.681 81.8335 145.094 81.8335 148.07C81.8335 151.046 84.2462 153.459 87.2223 153.459Z" fill="white"/>
</g>
<g style="mix-blend-mode:lighten">
<path d="M87.2223 153.459C90.1985 153.459 92.6112 151.046 92.6112 148.07C92.6112 145.094 90.1985 142.681 87.2223 142.681C84.2462 142.681 81.8335 145.094 81.8335 148.07C81.8335 151.046 84.2462 153.459 87.2223 153.459Z" fill="white"/>
</g>
<g style="mix-blend-mode:lighten">
<path d="M39.8473 106.078C42.8235 106.078 45.2362 103.666 45.2362 100.69C45.2362 97.7133 42.8235 95.3007 39.8473 95.3007C36.8712 95.3007 34.4585 97.7133 34.4585 100.69C34.4585 103.666 36.8712 106.078 39.8473 106.078Z" fill="white"/>
</g>
<g style="mix-blend-mode:lighten">
<path d="M39.8473 106.078C42.8235 106.078 45.2362 103.666 45.2362 100.69C45.2362 97.7133 42.8235 95.3007 39.8473 95.3007C36.8712 95.3007 34.4585 97.7133 34.4585 100.69C34.4585 103.666 36.8712 106.078 39.8473 106.078Z" fill="white"/>
</g>
<g style="mix-blend-mode:lighten">
<path d="M39.8473 106.078C42.8235 106.078 45.2362 103.666 45.2362 100.69C45.2362 97.7133 42.8235 95.3007 39.8473 95.3007C36.8712 95.3007 34.4585 97.7133 34.4585 100.69C34.4585 103.666 36.8712 106.078 39.8473 106.078Z" fill="white"/>
</g>
<g style="mix-blend-mode:lighten">
<path d="M39.8473 106.078C42.8235 106.078 45.2362 103.666 45.2362 100.69C45.2362 97.7133 42.8235 95.3007 39.8473 95.3007C36.8712 95.3007 34.4585 97.7133 34.4585 100.69C34.4585 103.666 36.8712 106.078 39.8473 106.078Z" fill="white"/>
</g>
<g style="mix-blend-mode:lighten" opacity="0.5">
<g style="mix-blend-mode:lighten" opacity="0.5">
<path d="M39.8429 109.712C44.8259 109.712 48.8654 105.673 48.8654 100.69C48.8654 95.7065 44.8259 91.667 39.8429 91.667C34.8599 91.667 30.8203 95.7065 30.8203 100.69C30.8203 105.673 34.8599 109.712 39.8429 109.712Z" fill="white"/>
</g>
<g style="mix-blend-mode:lighten" opacity="0.5">
<path d="M39.8429 109.712C44.8259 109.712 48.8654 105.673 48.8654 100.69C48.8654 95.7065 44.8259 91.667 39.8429 91.667C34.8599 91.667 30.8203 95.7065 30.8203 100.69C30.8203 105.673 34.8599 109.712 39.8429 109.712Z" fill="white"/>
</g>
<g style="mix-blend-mode:lighten" opacity="0.5">
<path d="M39.8429 109.712C44.8259 109.712 48.8654 105.673 48.8654 100.69C48.8654 95.7065 44.8259 91.667 39.8429 91.667C34.8599 91.667 30.8203 95.7065 30.8203 100.69C30.8203 105.673 34.8599 109.712 39.8429 109.712Z" fill="white"/>
</g>
<g style="mix-blend-mode:lighten" opacity="0.5">
<path d="M39.8429 109.712C44.8259 109.712 48.8654 105.673 48.8654 100.69C48.8654 95.7065 44.8259 91.667 39.8429 91.667C34.8599 91.667 30.8203 95.7065 30.8203 100.69C30.8203 105.673 34.8599 109.712 39.8429 109.712Z" fill="white"/>
</g>
</g>
<g style="mix-blend-mode:lighten" opacity="0.5">
<g style="mix-blend-mode:lighten" opacity="0.5">
<path d="M39.8429 157.093C44.8259 157.093 48.8654 153.053 48.8654 148.07C48.8654 143.087 44.8259 139.048 39.8429 139.048C34.8599 139.048 30.8203 143.087 30.8203 148.07C30.8203 153.053 34.8599 157.093 39.8429 157.093Z" fill="white"/>
</g>
<g style="mix-blend-mode:lighten" opacity="0.5">
<path d="M39.8429 157.093C44.8259 157.093 48.8654 153.053 48.8654 148.07C48.8654 143.087 44.8259 139.048 39.8429 139.048C34.8599 139.048 30.8203 143.087 30.8203 148.07C30.8203 153.053 34.8599 157.093 39.8429 157.093Z" fill="white"/>
</g>
<g style="mix-blend-mode:lighten" opacity="0.5">
<path d="M39.8429 157.093C44.8259 157.093 48.8654 153.053 48.8654 148.07C48.8654 143.087 44.8259 139.048 39.8429 139.048C34.8599 139.048 30.8203 143.087 30.8203 148.07C30.8203 153.053 34.8599 157.093 39.8429 157.093Z" fill="white"/>
</g>
<g style="mix-blend-mode:lighten" opacity="0.5">
<path d="M39.8429 157.093C44.8259 157.093 48.8654 153.053 48.8654 148.07C48.8654 143.087 44.8259 139.048 39.8429 139.048C34.8599 139.048 30.8203 143.087 30.8203 148.07C30.8203 153.053 34.8599 157.093 39.8429 157.093Z" fill="white"/>
</g>
</g>
<g style="mix-blend-mode:lighten" opacity="0.5">
<g style="mix-blend-mode:lighten" opacity="0.5">
<path d="M39.8429 62.3315C44.8259 62.3315 48.8654 58.292 48.8654 53.3089C48.8654 48.3259 44.8259 44.2864 39.8429 44.2864C34.8599 44.2864 30.8203 48.3259 30.8203 53.3089C30.8203 58.292 34.8599 62.3315 39.8429 62.3315Z" fill="white"/>
</g>
<g style="mix-blend-mode:lighten" opacity="0.5">
<path d="M39.8429 62.3315C44.8259 62.3315 48.8654 58.292 48.8654 53.3089C48.8654 48.3259 44.8259 44.2864 39.8429 44.2864C34.8599 44.2864 30.8203 48.3259 30.8203 53.3089C30.8203 58.292 34.8599 62.3315 39.8429 62.3315Z" fill="white"/>
</g>
<g style="mix-blend-mode:lighten" opacity="0.5">
<path d="M39.8429 62.3315C44.8259 62.3315 48.8654 58.292 48.8654 53.3089C48.8654 48.3259 44.8259 44.2864 39.8429 44.2864C34.8599 44.2864 30.8203 48.3259 30.8203 53.3089C30.8203 58.292 34.8599 62.3315 39.8429 62.3315Z" fill="white"/>
</g>
<g style="mix-blend-mode:lighten" opacity="0.5">
<path d="M39.8429 62.3315C44.8259 62.3315 48.8654 58.292 48.8654 53.3089C48.8654 48.3259 44.8259 44.2864 39.8429 44.2864C34.8599 44.2864 30.8203 48.3259 30.8203 53.3089C30.8203 58.292 34.8599 62.3315 39.8429 62.3315Z" fill="white"/>
</g>
</g>
<g style="mix-blend-mode:lighten">
<path d="M39.8473 58.698C42.8235 58.698 45.2362 56.2853 45.2362 53.3091C45.2362 50.333 42.8235 47.9203 39.8473 47.9203C36.8712 47.9203 34.4585 50.333 34.4585 53.3091C34.4585 56.2853 36.8712 58.698 39.8473 58.698Z" fill="white"/>
</g>
<g style="mix-blend-mode:lighten">
<path d="M39.8473 58.698C42.8235 58.698 45.2362 56.2853 45.2362 53.3091C45.2362 50.333 42.8235 47.9203 39.8473 47.9203C36.8712 47.9203 34.4585 50.333 34.4585 53.3091C34.4585 56.2853 36.8712 58.698 39.8473 58.698Z" fill="white"/>
</g>
<g style="mix-blend-mode:lighten">
<path d="M39.8473 58.698C42.8235 58.698 45.2362 56.2853 45.2362 53.3091C45.2362 50.333 42.8235 47.9203 39.8473 47.9203C36.8712 47.9203 34.4585 50.333 34.4585 53.3091C34.4585 56.2853 36.8712 58.698 39.8473 58.698Z" fill="white"/>
</g>
<g style="mix-blend-mode:lighten">
<path d="M39.8473 58.698C42.8235 58.698 45.2362 56.2853 45.2362 53.3091C45.2362 50.333 42.8235 47.9203 39.8473 47.9203C36.8712 47.9203 34.4585 50.333 34.4585 53.3091C34.4585 56.2853 36.8712 58.698 39.8473 58.698Z" fill="white"/>
</g>
<g style="mix-blend-mode:lighten">
<path d="M39.8473 153.459C42.8235 153.459 45.2362 151.046 45.2362 148.07C45.2362 145.094 42.8235 142.681 39.8473 142.681C36.8712 142.681 34.4585 145.094 34.4585 148.07C34.4585 151.046 36.8712 153.459 39.8473 153.459Z" fill="white"/>
</g>
<g style="mix-blend-mode:lighten">
<path d="M39.8473 153.459C42.8235 153.459 45.2362 151.046 45.2362 148.07C45.2362 145.094 42.8235 142.681 39.8473 142.681C36.8712 142.681 34.4585 145.094 34.4585 148.07C34.4585 151.046 36.8712 153.459 39.8473 153.459Z" fill="white"/>
</g>
<g style="mix-blend-mode:lighten">
<path d="M39.8473 153.459C42.8235 153.459 45.2362 151.046 45.2362 148.07C45.2362 145.094 42.8235 142.681 39.8473 142.681C36.8712 142.681 34.4585 145.094 34.4585 148.07C34.4585 151.046 36.8712 153.459 39.8473 153.459Z" fill="white"/>
</g>
<g style="mix-blend-mode:lighten">
<path d="M39.8473 153.459C42.8235 153.459 45.2362 151.046 45.2362 148.07C45.2362 145.094 42.8235 142.681 39.8473 142.681C36.8712 142.681 34.4585 145.094 34.4585 148.07C34.4585 151.046 36.8712 153.459 39.8473 153.459Z" fill="white"/>
</g>
</g>
<defs>
<linearGradient id="paint0_linear_2045_5402" x1="130.045" y1="50.7412" x2="130.045" y2="199.874" gradientUnits="userSpaceOnUse">
<stop stop-color="white" stop-opacity="0"/>
<stop offset="1" stop-color="white" stop-opacity="0.3"/>
</linearGradient>
<linearGradient id="paint1_linear_2045_5402" x1="44.571" y1="52.7096" x2="43.3922" y2="201.909" gradientUnits="userSpaceOnUse">
<stop stop-color="white" stop-opacity="0.3"/>
<stop offset="1" stop-color="white" stop-opacity="0"/>
</linearGradient>
<linearGradient id="paint2_linear_2045_5402" x1="87.0481" y1="98.8783" x2="87.0481" y2="6.22862" gradientUnits="userSpaceOnUse">
<stop stop-color="white" stop-opacity="0"/>
<stop offset="1" stop-color="white" stop-opacity="0.3"/>
</linearGradient>
</defs>
</svg>
