<svg width="173" height="200" viewBox="0 0 173 200" fill="none" xmlns="http://www.w3.org/2000/svg">
<path d="M172.096 49.7413V149.162L85.9941 198.874V99.4496L172.096 49.7413Z" fill="url(#paint0_linear_2045_5506)"/>
<path d="M85.9931 198.874V99.4496L0 49.7413V149.162L85.9931 198.874Z" fill="url(#paint1_linear_2045_5506)"/>
<path d="M172.1 50.0247L85.9957 99.7382L0 50.0247L85.9957 0.419678L172.1 50.0247Z" fill="url(#paint2_linear_2045_5506)"/>
<path d="M172.095 149.443V50.0232L85.9931 0.419678L0 50.0232V149.443L85.9931 199.156L172.095 149.443Z" stroke="white" stroke-miterlimit="10"/>
<g clip-path="url(#clip0_2045_5506)">
<path d="M128.414 56.9997C120.025 48.6067 109.336 42.8905 97.6987 40.5739C86.0615 38.2573 73.9989 39.4445 63.0363 43.9852C52.0737 48.5259 42.7036 56.2163 36.1112 66.0836C29.5187 75.9509 26 87.552 26 99.4197C26 111.287 29.5187 122.888 36.1112 132.756C42.7036 142.623 52.0737 150.313 63.0363 154.854C73.9989 159.395 86.0615 160.582 97.6987 158.265C109.336 155.949 120.025 150.233 128.414 141.84C133.989 136.272 138.411 129.66 141.429 122.381C144.447 115.102 146 107.299 146 99.4197C146 91.5399 144.447 83.7374 141.429 76.4586C138.411 69.1797 133.989 62.5674 128.414 56.9997ZM123.255 136.686C115.881 144.06 106.486 149.082 96.259 151.117C86.0316 153.151 75.4307 152.107 65.7969 148.115C56.163 144.124 47.9289 137.365 42.1357 128.693C36.3424 120.021 33.2503 109.825 33.2503 99.3957C33.2503 88.9661 36.3424 78.7706 42.1357 70.0987C47.9289 61.4267 56.163 54.6677 65.7969 50.6762C75.4307 46.6848 86.0316 45.6402 96.259 47.6747C106.486 49.7091 115.881 54.7311 123.255 62.1057C133.136 71.9992 138.686 85.4115 138.686 99.3957C138.686 113.38 133.136 126.792 123.255 136.686Z" fill="white"/>
<path d="M118.396 134.406V64.4457C115.348 61.5591 111.941 59.0785 108.258 57.0657V123.948L64.1059 56.8257C60.2733 58.8445 56.7401 61.3869 53.6079 64.3797V134.4C56.6552 137.286 60.0628 139.767 63.746 141.78V74.8797L107.898 142.026C111.733 139.983 115.266 137.419 118.396 134.406Z" fill="white"/>
</g>
<defs>
<linearGradient id="paint0_linear_2045_5506" x1="129.045" y1="49.7413" x2="129.045" y2="198.874" gradientUnits="userSpaceOnUse">
<stop stop-color="white" stop-opacity="0"/>
<stop offset="1" stop-color="white" stop-opacity="0.3"/>
</linearGradient>
<linearGradient id="paint1_linear_2045_5506" x1="43.571" y1="51.7098" x2="42.3922" y2="200.909" gradientUnits="userSpaceOnUse">
<stop stop-color="white" stop-opacity="0.3"/>
<stop offset="1" stop-color="white" stop-opacity="0"/>
</linearGradient>
<linearGradient id="paint2_linear_2045_5506" x1="86.0481" y1="97.8783" x2="86.0481" y2="5.22862" gradientUnits="userSpaceOnUse">
<stop stop-color="white" stop-opacity="0"/>
<stop offset="1" stop-color="white" stop-opacity="0.3"/>
</linearGradient>
<clipPath id="clip0_2045_5506">
<rect width="120" height="120" fill="white" transform="translate(26 39.4197)"/>
</clipPath>
</defs>
</svg>
